# AST/ASF file generated using VICON BodyLanguage
# -----------------------------------------------
:version 1.10
:name VICON
:units
  mass 1.0
  length 0.45
  angle deg
:documentation
   .ast/.asf automatically generated from VICON data using
   VICON BodyBuilder and BodyLanguage model FoxedUp or BRILLIANT.MOD
:root
   order TX TY TZ RX RY RZ
   axis XYZ
   position 0 0 0  
   orientation 0 0 0 
:bonedata
  begin
     id 1 
     name lhipjoint
     direction 0.577973 -0.728611 0.367523 
     length 2.48544 
     axis 0 0 0  XYZ
  end
  begin
     id 2 
     name lfemur
     direction 0.34202 -0.939693 0  
     length 7.1921  
     axis 0 0 20  XYZ
    dof rx ry rz
    limits (-160.0 20.0)
           (-70.0 70.0)
           (-60.0 70.0)
  end
  begin
     id 3 
     name ltibia
     direction 0.34202 -0.939693 0   
     length 7.71059   
     axis 0 0 20   XYZ
    dof rx
    limits (-10.0 170.0)
  end
  begin
     id 4 
     name lfoot
     direction 0.089538 -0.246004 0.965124   
     length 2.19909   
     axis -90 7.62852e-016 20   XYZ
    dof rx rz
    limits (-45.0 90.0)
           (-70.0 20.0)
  end
  begin
     id 5 
     name ltoes
     direction 1.53544e-011 -4.21829e-011 1   
     length 1.10116   
     axis -90 7.62852e-016 20   XYZ
    dof rx
    limits (-90.0 20.0)
  end
  begin
     id 6 
     name rhipjoint
     direction -0.554414 -0.743062 0.374812   
     length 2.4371  
     axis 0 0 0  XYZ 
  end
  begin
     id 7 
     name rfemur
     direction -0.34202 -0.939693 0   
     length 7.47254   
     axis 0 0 -20   XYZ
    dof rx ry rz
    limits (-160.0 20.0)
           (-70.0 70.0)
           (-70.0 60.0)
  end
  begin
     id 8 
     name rtibia
     direction -0.34202 -0.939693 0   
     length 7.65855   
     axis 0 0 -20   XYZ
    dof rx
    limits (-10.0 170.0)
 end
 begin
     id 9 
     name rfoot
     direction -0.133779 -0.367555 0.92033   
     length 2.43006  
     axis -90 -7.62852e-016 -20   XYZ
    dof rx rz
    limits (-45.0 90.0)
           (-20.0 70.0)
  end
  begin
     id 10 
     name rtoes
     direction -1.53563e-011 -4.21889e-011 1   
     length 1.19625   
     axis -90 -7.62852e-016 -20   XYZ
    dof rx
    limits (-90.0 20.0)
  end
  begin
     id 11 
     name lowerback
     direction 0.0249066 0.998043 -0.0573585   
     length 2.08485   
     axis 0 0 0   XYZ
    dof rx ry rz
    limits (-20.0 45.0)
           (-30.0 30.0)
           (-30.0 30.0)
  end
  begin
     id 12 
     name upperback
     direction 0.0237884 0.999673 0.00943178   
     length 2.08515   
     axis 0 0 0   XYZ
    dof rx ry rz
    limits (-20.0 45.0)
           (-30.0 30.0)
           (-30.0 30.0)
  end
  begin
     id 13 
     name thorax
     direction 0.0106671 0.999301 0.0358174   
     length 2.09037   
     axis 0 0 0   XYZ
    dof rx ry rz
    limits (-20.0 45.0)
           (-30.0 30.0)
           (-30.0 30.0)
  end
  begin
     id 14 
     name lowerneck
     direction -0.0580016 0.987052 0.149546   
     length 1.84454   
     axis 0 0 0   XYZ
    dof rx ry rz
    limits (-20.0 45.0)
           (-30.0 30.0)
           (-30.0 30.0)
  end
  begin
     id 15 
     name upperneck
     direction 0.079456 0.981963 -0.171567   
     length 1.88141   
     axis 0 0 0   XYZ
    dof rx ry rz
    limits (-20.0 45.0)
           (-30.0 30.0)
           (-30.0 30.0)
  end
  begin
     id 16
     name head
     direction 0.0262167 0.9967 -0.0768276  
     length 1.89541  
     axis 0 0 0   XYZ
    dof rx ry rz
    limits (-20.0 45.0)
           (-30.0 30.0)
           (-30.0 30.0)
  end
  begin
     id 17 
     name lclavicle
     direction 0.946135 0.322134 -0.0325326  
     length 3.949  
     axis 0 0 0   XYZ
    dof ry rz
    limits (-20.0 10.0)
           (0.0 20.0)
  end
  begin
     id 18 
     name lhumerus
     direction 1 -4.48964e-011 1.94005e-028   
     length 5.10995   
     axis 180 -30 -90   XYZ
    dof rx ry rz
    limits (-60.0 90.0)
           (-90.0 90.0)
           (-90.0 90.0)
  end
  begin
     id 19
     name lradius
     direction 1 -4.48976e-011 2.87852e-027   
     length 3.21207   
     axis 180 -30 -90   XYZ
    dof rx
    limits (-10.0 170.0)
  end
  begin
     id 20
     name lwrist
     direction 1 -4.48963e-011 1.9975e-027   
     length 1.60604   
     axis 2.96054e-016 90 90   XYZ
    dof ry
    limits (-180.0 0.0)
 end
  begin
     id 21 
     name lhand
     direction 1 -4.48919e-011 4.00227e-027   
     length 0.63349   
     axis -2.5488e-015 90 90   XYZ
    dof rx rz
    limits (-90.0 90.0)
           (-45.0 45.0)
  end
  begin
     id 22 
     name lfingers
     direction 1 -4.49037e-011 7.9652e-027   
     length 0.510736   
     axis -5.0975e-015 90 90   XYZ
    dof rx
    limits (0.0 90.0)
  end
  begin
     id 23
     name lthumb
     direction 0.707107 -6.34922e-011 0.707107   
     length 0.733318   
     axis -90 45 -4.48553e-014   XYZ
    dof rx rz
    limits (-45.0 45.0)
           (-45.0 45.0)
  end
  begin
     id 24 
     name rclavicle
     direction -0.940085 0.328911 -0.0897654   
     length 3.93848  
     axis 0 0 0   XYZ 
    dof ry rz
    limits (-10.0 20.0)
           (-20.0 0.0)
  end
  begin
     id 25 
     name rhumerus
     direction -1 -4.48958e-011 3.02044e-027  
     length 5.25109   
     axis 180 30 90   XYZ
    dof rx ry rz
    limits (-90.0 60.0)
           (-90.0 90.0)
           (-90.0 90.0)
  end
  begin
     id 26 
     name rradius
     direction -1 -4.4897e-011 9.78352e-028   
     length 3.28364   
     axis 180 30 90   XYZ
    dof rx
    limits (-10.0 170.0)
  end
  begin
     id 27 
     name rwrist
     direction -1 -4.48943e-011 1.99918e-027   
     length 1.64182   
     axis 2.96054e-016 -90 -90   XYZ
    dof ry
    limits (-180.0 0.0)
  end
  begin
     id 28
     name rhand
     direction -1 -4.49024e-011 3.98478e-027   
     length 0.599745   
     axis -2.5488e-015 -90 -90   XYZ
    dof rx rz
    limits (-90.0 90.0)
           (-45.0 45.0)
  end
  begin
     id 29
     name rfingers
     direction -1 -4.48914e-011 8.00621e-027   
     length 0.48353   
     axis -5.0975e-015 -90 -90   XYZ
    dof rx
    limits (0.0 90.0)
  end
  begin
     id 30
     name rthumb
     direction -0.707107 -6.34992e-011 0.707107   
     length 0.694255   
     axis -90 -45 4.48553e-014   XYZ
    dof rx rz
    limits (-45.0 45.0)
           (-45.0 45.0)
  end
:hierarchy
  begin
    root lhipjoint rhipjoint lowerback
    lhipjoint lfemur
    lfemur ltibia
    ltibia lfoot
    lfoot ltoes
    rhipjoint rfemur
    rfemur rtibia
    rtibia rfoot
    rfoot rtoes
    lowerback upperback
    upperback thorax
    thorax lowerneck lclavicle rclavicle
    lowerneck upperneck
    upperneck head
    lclavicle lhumerus
    lhumerus lradius
    lradius lwrist
    lwrist lhand lthumb
    lhand lfingers
    rclavicle rhumerus
    rhumerus rradius
    rradius rwrist
    rwrist rhand rthumb
    rhand rfingers
  end

#!OML:ASF E:\CV Data\Top Level 1\Subject 1\Session 1\player.ASF
:FULLY-SPECIFIED
:DEGREES
41
root 8.53562 16.9812 -4.59638 51.9455 -84.4614 -50.29
lowerback 3.23018 2.11346 3.12969
upperback -0.967122 2.98775 2.48313
thorax -2.77869 1.4425 0.636792
lowerneck -16.8623 10.4422 -2.22936
upperneck 21.6153 14.2175 3.46292
head 9.12225 6.79929 3.27991
rclavicle -4.29313e-014 -1.74931e-014
rhumerus -44.0205 38.3348 -103.497
rradius 88.5326
rwrist -9.79894
rhand -25.734 16.4407
rfingers 7.12502
rthumb 0.802608 -13.5376
lclavicle -4.29313e-014 -1.74931e-014
lhumerus -44.029 -34.1399 110.658
lradius 89.7436
lwrist 49.9975
lhand -18.0606 41.9219
lfingers 7.12502
lthumb 8.21182 71.7424
rfemur -17.6604 5.80726 26.0896
rtibia 43.2375
rfoot -26.3185 -9.8303
rtoes 9.02417
lfemur -18.2842 0.726701 -12.3259
ltibia 41.3911
lfoot -19.8164 5.27353
ltoes -1.31097
42
root 8.5287 16.9826 -4.59245 51.7256 -84.4909 -50.0642
lowerback 3.16606 2.1068 3.13672
upperback -0.990708 2.97669 2.4728
thorax -2.76614 1.43687 0.624915
lowerneck -16.8619 10.4701 -2.22714
upperneck 21.6823 14.2628 3.43925
head 9.14607 6.81509 3.28051
rclavicle 7.97623e-015 1.03368e-014
rhumerus -44.1349 38.2446 -103.655
rradius 88.5572
rwrist -10.207
rhand -26.0017 16.3264
rfingers 7.12502
rthumb 0.544098 -13.6527
lclavicle 7.97623e-015 1.03368e-014
lhumerus -44.0373 -34.0593 110.541
lradius 89.7829
lwrist 51.0322
lhand -18.3241 42.1793
lfingers 7.12502
lthumb 7.95757 72.0095
rfemur -17.6345 5.77442 26.0368
rtibia 43.2317
rfoot -26.3148 -9.80879
rtoes 9.09306
lfemur -18.2352 0.765283 -12.3808
ltibia 41.3432
lfoot -19.8139 5.25061
ltoes -1.32615
43
root 8.52246 16.9835 -4.58897 51.4965 -84.5298 -49.8252
lowerback 3.1084 2.1011 3.12989
upperback -1.01498 2.96675 2.46536
thorax -2.75877 1.43199 0.623375
lowerneck -16.8595 10.5035 -2.22757
upperneck 21.7355 14.3189 3.40587
head 9.16502 6.83506 3.27868
rclavicle 9.58515e-015 1.19271e-015
rhumerus -44.2538 38.1719 -103.816
rradius 88.594
rwrist -10.6281
rhand -26.23 16.23
rfingers 7.12502
rthumb 0.323615 -13.7495
lclavicle 9.58515e-015 1.19271e-015
lhumerus -44.0399 -33.9743 110.428
lradius 89.838
lwrist 52.0211
lhand -18.6062 42.3904
lfingers 7.12502
lthumb 7.68526 72.2307
rfemur -17.623 5.74274 25.9755
rtibia 43.2381
rfoot -26.3081 -9.78331
rtoes 9.18098
lfemur -18.1946 0.788412 -12.4427
ltibia 41.2983
lfoot -19.8082 5.23988
ltoes -1.37006
44
root 8.5168 16.9842 -4.58577 51.2776 -84.5764 -49.5962
lowerback 3.0596 2.10208 3.11884
upperback -1.03924 2.966 2.45437
thorax -2.7563 1.43171 0.619699
lowerneck -16.8484 10.5363 -2.2322
upperneck 21.7637 14.3733 3.37692
head 9.17311 6.85555 3.27676
rclavicle 6.93821e-014 3.45885e-014
rhumerus -44.371 38.0957 -103.974
rradius 88.644
rwrist -11.0319
rhand -26.4085 16.1499
rfingers 7.12502
rthumb 0.1512 -13.8298
lclavicle 6.93821e-014 3.45885e-014
lhumerus -44.0434 -33.9044 110.323
lradius 89.8984
lwrist 52.9061
lhand -18.8677 42.55
lfingers 7.12502
lthumb 7.43288 72.3995
rfemur -17.62 5.71566 25.9089
rtibia 43.2537
rfoot -26.2985 -9.75554
rtoes 9.28284
lfemur -18.1563 0.777107 -12.5102
ltibia 41.2564
lfoot -19.7999 5.25564
ltoes -1.4108
45
root 8.51167 16.9847 -4.58275 51.1372 -84.6299 -49.4435
lowerback 3.01525 2.10993 3.10664
upperback -1.06296 2.97458 2.4438
thorax -2.75576 1.43608 0.616442
lowerneck -16.8279 10.5678 -2.2471
upperneck 21.7666 14.4267 3.35348
head 9.16942 6.87657 3.27594
rclavicle 1.48902e-014 1.98785e-014
rhumerus -44.4841 38.0236 -104.124
rradius 88.702
rwrist -11.3829
rhand -26.5227 16.0823
rfingers 7.12502
rthumb 0.0409301 -13.8974
lclavicle 1.48902e-014 1.98785e-014
lhumerus -44.046 -33.8445 110.232
lradius 89.9553
lwrist 53.6259
lhand -19.0739 42.6617
lfingers 7.12502
lthumb 7.23379 72.5181
rfemur -17.6259 5.69917 25.8434
rtibia 43.2748
rfoot -26.2795 -9.73886
rtoes 9.3574
lfemur -18.1207 0.73905 -12.5779
ltibia 41.2176
lfoot -19.7907 5.29539
ltoes -1.43692
